<?xml version="1.0" encoding="UTF-8" standalone="no"?>
<!-- Created with Inkscape (http://www.inkscape.org/) -->

<svg
   xmlns:dc="http://purl.org/dc/elements/1.1/"
   xmlns:cc="http://creativecommons.org/ns#"
   xmlns:rdf="http://www.w3.org/1999/02/22-rdf-syntax-ns#"
   xmlns:svg="http://www.w3.org/2000/svg"
   xmlns="http://www.w3.org/2000/svg"
   xmlns:sodipodi="http://sodipodi.sourceforge.net/DTD/sodipodi-0.dtd"
   xmlns:inkscape="http://www.inkscape.org/namespaces/inkscape"
   width="28"
   height="28"
   viewBox="0 0 7.4083332 7.4083335"
   version="1.1"
   id="svg8"
   inkscape:version="0.92.3 (2405546, 2018-03-11)"
   sodipodi:docname="ubuntu-hover.svg">
  <defs
     id="defs2" />
  <sodipodi:namedview
     id="base"
     pagecolor="#ffffff"
     bordercolor="#666666"
     borderopacity="1.0"
     inkscape:pageopacity="0.0"
     inkscape:pageshadow="2"
     inkscape:zoom="22.750004"
     inkscape:cx="12.634144"
     inkscape:cy="11.793999"
     inkscape:document-units="mm"
     inkscape:current-layer="layer1"
     showgrid="false"
     units="px"
     inkscape:window-width="1366"
     inkscape:window-height="709"
     inkscape:window-x="0"
     inkscape:window-y="30"
     inkscape:window-maximized="1" />
  <metadata
     id="metadata5">
    <rdf:RDF>
      <cc:Work
         rdf:about="">
        <dc:format>image/svg+xml</dc:format>
        <dc:type
           rdf:resource="http://purl.org/dc/dcmitype/StillImage" />
        <dc:title></dc:title>
      </cc:Work>
    </rdf:RDF>
  </metadata>
  <g
     inkscape:label="Layer 1"
     inkscape:groupmode="layer"
     id="layer1"
     transform="translate(0,-289.59164)">
    <g
       id="g1057"
       transform="matrix(0.01101407,0,0,0.0107244,0.98686343,290.64997)"
       style="fill:#ff6600">
      <g
         id="ubuntu"
         style="fill:#ff6600">
	<g
   id="g962"
   style="fill:#ff6600">
		<g
   id="g960"
   style="fill:#ff6600">
			<path
   id="path958"
   d="m 168.839,241.198 c 0,-38.117 17.894,-72.05 45.685,-93.896 L 171.988,79.22 c -35.648,25.603 -62.472,62.66 -75.127,105.796 19.811,12.751 32.949,35.031 32.949,60.353 0,24.424 -12.143,45.957 -30.783,58.918 13.606,40.86 40.12,75.838 74.706,100.113 l 39.559,-70.358 c -27.105,-21.838 -44.453,-55.318 -44.453,-92.844 z"
   inkscape:connector-curvature="0"
   style="fill:#ff6600" />

		</g>

	</g>

	<g
   id="g966"
   style="fill:#ff6600">
		<path
   id="path964"
   d="m 109.704,245.368 c 0,28.484 -23.132,51.592 -51.609,51.592 -28.491,0 -51.606,-23.107 -51.606,-51.592 0,-28.47 23.115,-51.577 51.606,-51.577 28.477,0 51.609,23.107 51.609,51.577 z"
   inkscape:connector-curvature="0"
   style="fill:#ff6600" />

	</g>

	<g
   id="g972"
   style="fill:#ff6600">
		<g
   id="g970"
   style="fill:#ff6600">
			<path
   id="path968"
   d="m 399.494,370.126 c 12.002,0 23.301,2.936 33.23,8.149 30.924,-32.591 50.906,-75.595 54.211,-123.228 l -80.148,-1.551 c -6.171,60.111 -56.954,106.941 -118.677,106.941 -17.084,0 -33.388,-3.594 -48.101,-10.093 l -39.841,69.704 c 26.56,13.069 56.376,20.411 87.941,20.411 13.622,0 26.981,-1.379 39.854,-4.006 2.746,-37.072 33.717,-66.327 71.531,-66.327 z"
   inkscape:connector-curvature="0"
   style="fill:#ff6600" />

		</g>

	</g>

	<g
   id="g976"
   style="fill:#ff6600">
		<path
   id="path974"
   d="m 451.071,441.847 c 0,28.478 -23.084,51.576 -51.577,51.576 -28.493,0 -51.594,-23.098 -51.594,-51.576 0,-28.5 23.101,-51.592 51.594,-51.592 28.493,0 51.577,23.092 51.577,51.592 z"
   inkscape:connector-curvature="0"
   style="fill:#ff6600" />

	</g>

	<g
   id="g982"
   style="fill:#ff6600">
		<g
   id="g980"
   style="fill:#ff6600">
			<path
   id="path978"
   d="m 438.211,110.152 c -11.677,8.269 -25.968,13.163 -41.399,13.163 -39.637,0 -71.73,-32.102 -71.73,-71.715 0,-2.104 0.094,-4.139 0.25,-6.181 -12.05,-2.307 -24.503,-3.491 -37.222,-3.491 -31.859,0 -61.988,7.498 -88.689,20.777 l 39.607,69.75 c 14.979,-6.748 31.593,-10.544 49.082,-10.544 61.177,0 111.601,46.074 118.491,105.414 l 80.147,-2.447 C 483.209,181.12 465.487,141.372 438.211,110.152 Z"
   inkscape:connector-curvature="0"
   style="fill:#ff6600" />

		</g>

	</g>

	<g
   id="g986"
   style="fill:#ff6600">
		<path
   id="path984"
   d="m 448.374,51.601 c 0,28.492 -23.038,51.592 -51.561,51.592 -28.491,0 -51.592,-23.1 -51.592,-51.592 C 345.22,23.107 368.321,0 396.812,0 c 28.523,0 51.562,23.107 51.562,51.601 z"
   inkscape:connector-curvature="0"
   style="fill:#ff6600" />

	</g>

</g>
      <g
         id="g989"
         style="fill:#ff6600">
</g>
      <g
         id="g991"
         style="fill:#ff6600">
</g>
      <g
         id="g993"
         style="fill:#ff6600">
</g>
      <g
         id="g995"
         style="fill:#ff6600">
</g>
      <g
         id="g997"
         style="fill:#ff6600">
</g>
      <g
         id="g999"
         style="fill:#ff6600">
</g>
      <g
         id="g1001"
         style="fill:#ff6600">
</g>
      <g
         id="g1003"
         style="fill:#ff6600">
</g>
      <g
         id="g1005"
         style="fill:#ff6600">
</g>
      <g
         id="g1007"
         style="fill:#ff6600">
</g>
      <g
         id="g1009"
         style="fill:#ff6600">
</g>
      <g
         id="g1011"
         style="fill:#ff6600">
</g>
      <g
         id="g1013"
         style="fill:#ff6600">
</g>
      <g
         id="g1015"
         style="fill:#ff6600">
</g>
      <g
         id="g1017"
         style="fill:#ff6600">
</g>
    </g>
  </g>
</svg>
